Patient4_TMGait_0pt4_03_right_32_EMG.mot
version=1
nRows=16
nColumns=33
inDegrees=no
endheader
time	1LAddLong	2LGlutMax	3LGlutMed	4LIliopsoas	5LSemiMemb	6LBicFemLong	7LRecFem	8LVastMed	9LVastLat	10LGasMed	11LTibAnt	12lTibPost	13LPeroneusLong	14LSol	15LExtDigLong	16LFlexDigLong	17RAddLong	18RGlutMax	19RGlutMed	20RIliopsoas	21RSemiMemb	22RBicFemLong	23RRecFem	24RVastMed	25RVastLat	26RGasMed	27RTibAnt	28RTibPost	29RPeroneusLong	30RSol	31RExtDigLong	32RFlexDigLong
42.49	-0.012665	-0.070953	0.029144	-0.016022	0.029144	0.14175	0.071869	-0.018311	-0.10941	0.011597	0.00946	0.003815	0.041504	0.027313	-0.001068	-0.005798	-0.003662	0.021667	0.60699	0.091858	0.071411	-0.097046	-0.23331	-0.014191	0.010223	-0.01236	-0.55069	-0.003052	-0.034332	0.000305	0.001373	-0.014496
42.491	-0.035095	-0.007477	0.046997	0.001526	-0.044098	0.28671	0.11795	-0.003815	-0.12894	0.008392	0.00885	0.014343	0.037384	0.006104	-0.004425	-0.00885	0.014343	0.079498	0.27313	0.066071	0.054016	-0.12253	-0.26993	-0.000916	-0.003662	-0.007324	-0.55725	-0.000458	-0.071411	-0.011139	-0.000458	-0.011902
42.492	-0.043793	0.014801	0.035248	0.013123	-0.069122	0.39383	0.11887	0.007477	-0.12085	0.012665	0.002136	0.28107	0.05127	0.001373	-0.006104	-0.00885	0.026398	0.009155	0.092773	-0.017242	0.040741	-0.16663	-0.25665	0.009613	0.008698	-0.001831	-0.28473	-0.002441	-0.04715	-0.070038	0.000916	-0.016174
42.493	-0.042419	-0.020447	0.017242	0.011139	-0.079651	0.34958	0.1033	0.007629	-0.067902	0.018921	0.005646	0.10544	0.052948	0.043488	-0.004272	0.002747	0.014954	0.036316	0.39932	-0.063171	0.033417	-0.12589	-0.25818	-0.01297	-0.001068	0.000916	0.061951	-0.007782	0.010681	-0.12421	0.001068	-0.010529
42.494	-0.032959	-0.029907	-0.00412	0.005493	-0.035553	0.2536	0.031738	-0.00061	-0.088959	0.019379	0.007935	-0.35004	0.050507	0.055237	-0.003357	-0.000916	-0.000305	0.14282	0.21957	-0.005951	0.023956	-0.035553	-0.25467	0.013733	0.012512	-0.001221	-0.036469	-0.003357	0.06012	-0.1033	-0.00061	-0.011597
42.495	-0.016632	-0.068817	-0.031433	-0.003357	0.078735	-0.016785	-0.009766	-0.005646	-0.061035	0.006714	0.000763	0.04425	0.04837	0.031128	-0.010986	-0.008545	-0.002136	0.12634	0.12009	0.037079	0.059052	-0.016174	-0.27161	-0.023041	0.010071	-0.009308	-0.11948	-0.005035	0.23025	0.002594	-0.002747	-0.007629
42.496	-0.018005	-0.10422	-0.070038	0.006866	0.053253	-0.088806	0.019226	-0.009766	-0.044098	0.006409	0.006561	0.067749	0.053864	0.025177	-0.003052	0.004272	0.00412	0.19577	0.21896	0.067139	0.061951	0.070801	-0.24567	-0.05722	-0.011597	-0.006714	-0.003815	-0.004425	0.59357	0.022736	-0.000763	-0.005493
42.497	-0.023651	-0.095978	-0.065002	0.006561	0.025482	-0.01297	-0.001373	-0.009003	0.068054	0.006104	0.001373	0.001678	0.049133	-0.018616	-0.012817	-0.007629	0.00885	0.19653	0.071106	0.025177	0.053253	0.06546	-0.24643	-0.045624	0.008087	-0.007782	0.20706	-0.009155	0.88562	-0.005951	-0.004883	-0.007935
42.498	-0.012512	-0.090637	-0.036469	-0.000305	0.031738	0.009613	0.10605	0.00061	0.063324	0.015411	-0.002747	-0.019379	0.04776	0.001526	-0.002747	-0.004578	0.015869	0.15106	-0.009003	0.007324	0.064392	0.028381	-0.21683	-0.06012	0.012207	-0.00824	0.20218	-0.00473	0.69595	-0.10147	-0.002441	-0.00946
42.499	-0.012054	-0.1239	0.002441	-0.007019	0.019531	0.016174	0.1831	0.012054	-0.018311	0.02121	-0.000305	-0.02121	0.031586	0.047455	-0.002594	-0.00885	0.009003	0.10819	0.16144	0.005646	0.055389	0.005493	-0.22201	-0.069427	0.010071	0.004883	-0.17853	-0.00351	-0.041199	-0.19608	-0.000305	-0.001526
42.5	0.000458	-0.096741	-0.00824	-0.004578	0.015259	-0.072479	0.15732	0.019379	-0.11795	0.015564	0.002594	-0.034332	0.024872	0.038452	-0.009613	-0.010223	0.015259	0.095367	0.44968	-0.027466	0.07431	-0.032654	-0.25803	-0.058136	0.015259	0.005035	-0.42267	-0.002899	-0.68237	-0.21027	-0.001068	-0.008698
42.501	0.017395	-0.019379	-0.002747	0.014801	0.062408	-0.047607	0.12039	0.02533	-0.19516	0.016632	0.001526	-0.020599	0.009613	0.062714	-0.00824	-0.002594	0.010529	0.10361	0.30563	-0.026245	0.072021	-0.049438	-0.23392	-0.06424	0.012817	0.001526	-0.32684	-0.000305	0.022278	-0.085297	0.000763	-0.006256
42.502	0.003204	-0.00824	-0.014496	0	0.049133	0.11719	0.035095	0.035706	-0.22156	0.013275	0.000305	-0.022278	0.022125	0.038605	-0.008545	-0.011444	0.009155	0.14343	0.50308	-0.016632	0.048065	-0.041199	-0.25955	-0.033112	0.032501	0.001526	-0.13031	0.006256	-0.60211	0.061188	0.001373	-0.007782
42.503	0.00885	0.00061	-0.007172	0.021973	-0.041809	0.19989	-0.022888	0.017853	-0.17395	0.014496	0.007477	-0.023956	0.005951	0.056	-0.013123	-0.016327	-0.010986	0.13092	0.27771	-0.016479	-0.032349	0.031281	-0.23758	0.012512	0.033722	0.001526	0.0354	-0.002594	-0.83099	0.050507	0.000153	-0.013733
42.504	0.012512	-0.023956	-0.006409	0.01236	-0.10437	0.21683	-0.060883	0.017242	-0.088806	0.014343	-0.002441	-0.025482	0.007324	0.046082	0.005188	-0.00351	-0.015564	0.083008	0.090942	0.00946	-0.048828	0.1001	-0.25726	0.033722	0.021973	-0.002136	0.058441	-0.001984	-0.42145	0.13382	-0.000763	-0.010529
42.505	0.008087	-0.003357	-0.020142	0.000458	-0.14603	-0.014496	-0.13596	-0.003967	-0.017853	0.018005	0.003204	-0.026245	0.001984	0.045013	-0.001373	-0.00061	0.009155	0.098114	0.14023	-0.009003	0.05188	0.065002	-0.16922	0.038147	0.005951	-0.002289	0.036926	-0.005035	-0.15335	0.18707	-0.00061	-0.02243
